<?xml version="1.0" encoding="utf-8"?>
<!-- Generator: Adobe Illustrator 16.0.0, SVG Export Plug-In . SVG Version: 6.00 Build 0)  -->
<!DOCTYPE svg PUBLIC "-//W3C//DTD SVG 1.1//EN" "http://www.w3.org/Graphics/SVG/1.1/DTD/svg11.dtd">
<svg version="1.1" id="Layer_1" xmlns="http://www.w3.org/2000/svg" xmlns:xlink="http://www.w3.org/1999/xlink" x="0px" y="0px"
	 width="125px" height="95px" viewBox="0 0 125 95" enable-background="new 0 0 125 95" xml:space="preserve">
<path fill="#262727" d="M20.108,49.458c-1.231,0-2.453-0.185-3.664-0.555c-1.211-0.369-2.361-0.871-3.448-1.508
	c-1.087-0.636-2.073-1.385-2.955-2.247c-0.883-0.862-1.632-1.806-2.247-2.833v6.526H5.824V3.895h2.094V24.09
	c1.56-2.298,3.386-4.166,5.48-5.603c2.093-1.437,4.535-2.155,7.327-2.155c2.298,0,4.36,0.493,6.188,1.478
	c1.826,0.985,3.376,2.258,4.648,3.817c1.272,1.561,2.248,3.335,2.925,5.326c0.678,1.992,1.016,3.992,1.016,6.003
	c0,2.176-0.391,4.259-1.17,6.25c-0.78,1.991-1.869,3.746-3.263,5.264c-1.396,1.52-3.028,2.731-4.896,3.633
	C24.305,49.006,22.284,49.458,20.108,49.458z M19.862,47.488c1.97,0,3.776-0.42,5.418-1.262c1.642-0.841,3.068-1.939,4.279-3.294
	c1.21-1.354,2.145-2.904,2.801-4.649c0.656-1.744,0.985-3.52,0.985-5.326c0-1.887-0.318-3.714-0.954-5.479
	c-0.637-1.765-1.519-3.325-2.647-4.68c-1.13-1.354-2.494-2.441-4.095-3.263c-1.601-0.821-3.346-1.231-5.233-1.231
	c-1.438,0-2.792,0.247-4.064,0.739c-1.272,0.493-2.443,1.15-3.509,1.971c-1.068,0.821-2.012,1.765-2.833,2.832
	c-0.822,1.068-1.52,2.197-2.093,3.387v11.144c0.123,1.231,0.584,2.401,1.385,3.509c0.8,1.109,1.786,2.084,2.955,2.925
	c1.17,0.842,2.432,1.499,3.787,1.971C17.399,47.252,18.671,47.488,19.862,47.488z"/>
<path fill="#262727" d="M56.62,49.458c-2.176,0-4.208-0.441-6.095-1.323c-1.889-0.883-3.541-2.094-4.957-3.633
	c-1.416-1.539-2.524-3.325-3.324-5.356c-0.8-2.032-1.201-4.197-1.201-6.496c0-2.257,0.39-4.372,1.17-6.342
	c0.779-1.97,1.867-3.694,3.263-5.172c1.395-1.478,3.017-2.647,4.864-3.51c1.847-0.862,3.858-1.293,6.034-1.293
	c2.175,0,4.207,0.431,6.096,1.293c1.888,0.862,3.529,2.042,4.926,3.541c1.395,1.499,2.503,3.253,3.324,5.264
	c0.82,2.012,1.231,4.146,1.231,6.403c0,0.083-0.011,0.246-0.03,0.493c-0.021,0.247-0.031,0.391-0.031,0.431H43.197
	c0.123,1.97,0.574,3.808,1.354,5.51c0.779,1.704,1.775,3.171,2.986,4.403c1.21,1.231,2.595,2.207,4.156,2.924
	c1.56,0.719,3.223,1.078,4.987,1.078c1.19,0,2.349-0.154,3.479-0.462c1.129-0.308,2.186-0.749,3.171-1.324
	c0.985-0.575,1.848-1.262,2.586-2.062c0.739-0.8,1.333-1.672,1.786-2.617l1.908,0.493c-0.452,1.108-1.119,2.145-2.001,3.109
	c-0.884,0.965-1.899,1.786-3.048,2.463c-1.15,0.678-2.401,1.211-3.755,1.601C59.452,49.263,58.056,49.458,56.62,49.458z
	 M69.858,31.972c-0.124-2.011-0.555-3.858-1.294-5.542c-0.738-1.683-1.714-3.14-2.925-4.372s-2.597-2.186-4.156-2.863
	c-1.56-0.677-3.243-1.016-5.049-1.016c-1.807,0-3.489,0.349-5.049,1.047c-1.561,0.698-2.936,1.662-4.125,2.894
	c-1.191,1.231-2.146,2.689-2.863,4.372c-0.719,1.684-1.139,3.51-1.262,5.48H69.858z"/>
<path fill="#262727" d="M91.646,47.364c-0.083,0.042-0.298,0.154-0.646,0.339c-0.35,0.185-0.801,0.391-1.354,0.615
	c-0.555,0.227-1.191,0.422-1.909,0.585c-0.719,0.164-1.508,0.247-2.37,0.247c-0.78,0-1.53-0.123-2.248-0.37
	c-0.719-0.246-1.345-0.594-1.877-1.046c-0.534-0.451-0.966-1.005-1.293-1.663c-0.329-0.656-0.493-1.395-0.493-2.216V18.672h-4.556
	v-1.847h4.556V5.804h2.094v11.021h7.635v1.847h-7.635v24.875c0.082,1.191,0.533,2.093,1.354,2.709
	c0.82,0.616,1.765,0.923,2.832,0.923c0.656,0,1.282-0.071,1.878-0.216c0.595-0.143,1.129-0.307,1.602-0.492
	c0.471-0.185,0.841-0.359,1.107-0.523c0.267-0.163,0.44-0.267,0.523-0.308L91.646,47.364z"/>
<path fill="#262727" d="M122.432,48.842h-2.093V30.986c0-8.456-2.812-12.684-8.436-12.684c-1.396,0-2.771,0.268-4.125,0.8
	c-1.354,0.534-2.607,1.273-3.756,2.216c-1.15,0.945-2.155,2.063-3.018,3.356c-0.861,1.293-1.499,2.679-1.908,4.156v20.01h-2.094
	V3.895h2.094V24.83c0.656-1.272,1.467-2.432,2.432-3.479c0.964-1.047,2.011-1.939,3.14-2.678c1.129-0.739,2.34-1.313,3.633-1.724
	c1.293-0.41,2.617-0.616,3.972-0.616c3.488,0,6.055,1.253,7.696,3.756c1.642,2.504,2.463,6.055,2.463,10.652V48.842z"/>
<path fill="#262727" d="M20.725,81.495c-1.396,0-2.72-0.206-3.972-0.616c-1.252-0.409-2.423-0.964-3.51-1.662
	c-1.088-0.697-2.083-1.518-2.986-2.463c-0.903-0.943-1.684-1.949-2.34-3.017v20.257H5.824V48.862h1.971v6.649
	c0.656-1.025,1.436-1.979,2.339-2.863c0.903-0.882,1.898-1.641,2.986-2.277c1.087-0.637,2.217-1.129,3.387-1.479
	c1.17-0.348,2.371-0.523,3.602-0.523c2.257,0,4.33,0.473,6.219,1.417c1.887,0.944,3.509,2.196,4.864,3.755
	c1.354,1.561,2.411,3.336,3.171,5.326c0.759,1.992,1.139,4.014,1.139,6.065c0,2.217-0.36,4.331-1.078,6.342
	c-0.719,2.012-1.724,3.767-3.017,5.264c-1.293,1.5-2.843,2.7-4.648,3.603C24.952,81.043,22.941,81.495,20.725,81.495z
	 M20.417,79.524c1.97,0,3.756-0.42,5.356-1.262c1.601-0.841,2.956-1.949,4.063-3.325c1.109-1.375,1.971-2.935,2.586-4.68
	c0.616-1.744,0.924-3.519,0.924-5.325c0-1.888-0.349-3.715-1.047-5.479c-0.698-1.766-1.652-3.325-2.863-4.681
	c-1.211-1.354-2.638-2.432-4.279-3.231c-1.643-0.801-3.407-1.201-5.295-1.201c-1.19,0-2.462,0.257-3.817,0.77
	c-1.354,0.514-2.617,1.191-3.787,2.032c-1.169,0.842-2.155,1.816-2.955,2.924c-0.801,1.108-1.262,2.279-1.385,3.511v11.021
	c0.533,1.231,1.231,2.392,2.093,3.479c0.862,1.089,1.836,2.032,2.924,2.833c1.087,0.8,2.268,1.437,3.541,1.908
	C17.747,79.289,19.062,79.524,20.417,79.524z"/>
<path fill="#262727" d="M56.373,81.495c-2.176,0-4.197-0.441-6.064-1.323c-1.869-0.883-3.5-2.073-4.895-3.572
	c-1.396-1.497-2.484-3.252-3.263-5.264c-0.78-2.011-1.17-4.125-1.17-6.342c0-2.258,0.4-4.393,1.2-6.404
	c0.801-2.01,1.899-3.775,3.294-5.294c1.395-1.519,3.026-2.72,4.895-3.603c1.867-0.882,3.869-1.324,6.003-1.324
	s4.146,0.442,6.034,1.324c1.888,0.883,3.529,2.084,4.926,3.603c1.395,1.519,2.494,3.284,3.294,5.294
	c0.8,2.012,1.201,4.146,1.201,6.404c0,2.217-0.401,4.331-1.201,6.342c-0.8,2.012-1.899,3.767-3.294,5.264
	c-1.396,1.499-3.038,2.689-4.926,3.572C60.519,81.054,58.507,81.495,56.373,81.495z M43.074,65.056c0,1.97,0.348,3.839,1.047,5.603
	c0.697,1.766,1.642,3.305,2.833,4.618c1.19,1.314,2.596,2.351,4.218,3.109c1.621,0.76,3.334,1.139,5.141,1.139
	c1.806,0,3.52-0.39,5.142-1.17c1.621-0.778,3.037-1.825,4.248-3.14c1.211-1.313,2.175-2.863,2.895-4.648
	c0.717-1.786,1.077-3.664,1.077-5.634c0-1.971-0.36-3.849-1.077-5.634c-0.72-1.786-1.684-3.335-2.895-4.649
	c-1.211-1.312-2.616-2.359-4.218-3.14c-1.601-0.779-3.305-1.17-5.11-1.17c-1.807,0-3.509,0.391-5.11,1.17
	c-1.601,0.78-3.007,1.838-4.218,3.171c-1.211,1.334-2.176,2.894-2.894,4.68C43.433,61.146,43.074,63.045,43.074,65.056z"/>
<path fill="#262727" d="M88.752,81.495c-2.463,0-4.763-0.411-6.896-1.231c-2.135-0.82-4.022-2.094-5.664-3.817l1.169-1.416
	c1.725,1.561,3.489,2.73,5.296,3.51c1.806,0.78,3.817,1.17,6.034,1.17c2.995,0,5.418-0.637,7.266-1.909
	c1.847-1.271,2.771-3.058,2.771-5.356c0-1.067-0.236-1.96-0.708-2.679c-0.473-0.718-1.16-1.333-2.062-1.847
	c-0.903-0.514-2.022-0.965-3.355-1.355c-1.335-0.39-2.863-0.789-4.588-1.2c-1.765-0.409-3.294-0.81-4.587-1.2
	c-1.293-0.39-2.37-0.852-3.232-1.386c-0.862-0.533-1.499-1.21-1.908-2.031c-0.411-0.821-0.616-1.868-0.616-3.141
	c0-1.602,0.308-2.976,0.923-4.126c0.616-1.147,1.447-2.103,2.494-2.862c1.047-0.759,2.257-1.324,3.633-1.693
	c1.375-0.369,2.842-0.555,4.402-0.555c2.586,0,4.812,0.432,6.681,1.293c1.867,0.862,3.232,1.95,4.095,3.264l-1.416,1.047
	c-0.904-1.231-2.228-2.176-3.972-2.832c-1.745-0.656-3.602-0.985-5.572-0.985c-1.272,0-2.463,0.134-3.571,0.4
	c-1.108,0.268-2.084,0.698-2.925,1.293c-0.842,0.596-1.508,1.345-2.001,2.247c-0.492,0.903-0.738,1.97-0.738,3.201
	c0,0.986,0.163,1.808,0.492,2.463c0.328,0.658,0.852,1.201,1.57,1.632c0.718,0.432,1.621,0.801,2.709,1.108
	c1.087,0.308,2.411,0.646,3.972,1.017c1.97,0.451,3.714,0.902,5.233,1.354c1.518,0.452,2.811,0.986,3.879,1.602
	c1.066,0.616,1.878,1.375,2.432,2.278c0.555,0.903,0.831,2.053,0.831,3.448c0,1.437-0.287,2.719-0.861,3.848
	c-0.575,1.13-1.386,2.104-2.433,2.925c-1.046,0.821-2.319,1.446-3.817,1.878C92.21,81.279,90.558,81.495,88.752,81.495z"/>
<path fill="#262727" d="M120.753,79.401c-0.083,0.042-0.298,0.154-0.646,0.339c-0.35,0.185-0.801,0.391-1.354,0.615
	c-0.555,0.227-1.191,0.422-1.909,0.586c-0.718,0.163-1.508,0.246-2.37,0.246c-0.78,0-1.53-0.123-2.248-0.37
	c-0.718-0.246-1.345-0.594-1.877-1.046c-0.534-0.451-0.965-1.006-1.293-1.663c-0.329-0.656-0.493-1.395-0.493-2.216V50.71h-4.556
	v-1.848h4.556V37.841h2.094v11.021h7.635v1.848h-7.635v24.874c0.082,1.191,0.533,2.094,1.354,2.709
	c0.82,0.616,1.765,0.924,2.832,0.924c0.656,0,1.283-0.071,1.878-0.216c0.595-0.143,1.129-0.308,1.602-0.492
	c0.471-0.185,0.841-0.358,1.107-0.523c0.267-0.163,0.44-0.267,0.523-0.308L120.753,79.401z"/>
<path fill="#FFFFFF" d="M17.105,46.455c-1.231,0-2.453-0.185-3.664-0.554c-1.211-0.37-2.361-0.872-3.448-1.509
	c-1.088-0.636-2.073-1.385-2.955-2.247c-0.883-0.862-1.632-1.806-2.247-2.833v6.527H2.82V0.892h2.094v20.195
	c1.56-2.298,3.386-4.166,5.48-5.603c2.093-1.437,4.535-2.156,7.327-2.156c2.298,0,4.361,0.493,6.188,1.478
	c1.826,0.985,3.376,2.258,4.648,3.817c1.272,1.561,2.247,3.335,2.925,5.326c0.678,1.991,1.016,3.992,1.016,6.003
	c0,2.176-0.39,4.259-1.169,6.25c-0.78,1.991-1.869,3.746-3.263,5.264c-1.396,1.52-3.028,2.731-4.896,3.633
	C21.301,46.002,19.28,46.455,17.105,46.455z M16.858,44.484c1.97,0,3.776-0.42,5.418-1.262c1.642-0.841,3.068-1.939,4.279-3.293
	c1.21-1.355,2.144-2.904,2.801-4.649c0.656-1.745,0.985-3.52,0.985-5.326c0-1.888-0.318-3.714-0.954-5.479
	c-0.637-1.765-1.52-3.325-2.647-4.68c-1.13-1.354-2.494-2.441-4.095-3.263c-1.601-0.821-3.346-1.231-5.233-1.231
	c-1.438,0-2.792,0.247-4.064,0.739c-1.272,0.493-2.443,1.15-3.509,1.971c-1.068,0.821-2.012,1.765-2.833,2.832
	c-0.822,1.068-1.52,2.197-2.093,3.387v11.145c0.123,1.231,0.584,2.401,1.385,3.509c0.8,1.109,1.785,2.084,2.955,2.925
	c1.17,0.842,2.432,1.499,3.787,1.971C14.396,44.249,15.668,44.484,16.858,44.484z"/>
<path fill="#FFFFFF" d="M53.616,46.455c-2.176,0-4.208-0.442-6.095-1.324c-1.889-0.882-3.541-2.094-4.957-3.633
	c-1.416-1.539-2.524-3.325-3.325-5.356c-0.8-2.032-1.2-4.197-1.2-6.496c0-2.257,0.39-4.372,1.169-6.342
	c0.779-1.97,1.868-3.695,3.264-5.172c1.395-1.478,3.017-2.647,4.864-3.51c1.847-0.862,3.858-1.293,6.034-1.293
	c2.175,0,4.207,0.432,6.096,1.293c1.888,0.862,3.529,2.042,4.926,3.541c1.395,1.499,2.503,3.253,3.325,5.264
	c0.82,2.012,1.23,4.147,1.23,6.404c0,0.083-0.011,0.246-0.03,0.493c-0.021,0.246-0.031,0.391-0.031,0.431H40.194
	c0.123,1.97,0.574,3.808,1.354,5.51c0.779,1.704,1.775,3.171,2.986,4.402c1.21,1.231,2.595,2.208,4.156,2.925
	c1.56,0.719,3.223,1.078,4.987,1.078c1.19,0,2.349-0.154,3.479-0.462c1.129-0.308,2.186-0.749,3.171-1.324
	c0.984-0.575,1.847-1.262,2.586-2.062c0.738-0.8,1.333-1.672,1.785-2.617l1.908,0.493c-0.451,1.108-1.118,2.145-2.001,3.109
	c-0.883,0.965-1.899,1.786-3.048,2.463c-1.149,0.678-2.401,1.211-3.755,1.601C56.448,46.259,55.053,46.455,53.616,46.455z
	 M66.854,28.968c-0.124-2.011-0.555-3.858-1.293-5.542c-0.739-1.683-1.715-3.14-2.925-4.371c-1.211-1.231-2.596-2.186-4.156-2.863
	c-1.561-0.677-3.243-1.016-5.049-1.016c-1.807,0-3.489,0.349-5.049,1.046c-1.561,0.699-2.936,1.663-4.125,2.894
	c-1.19,1.231-2.145,2.689-2.863,4.372c-0.719,1.684-1.139,3.51-1.262,5.48H66.854z"/>
<path fill="#FFFFFF" d="M90.314,47.404c-0.083,0.042-2.123-0.842-2.472-0.657c-0.349,0.185-1.072-0.517-1.627-0.292
	c-0.554,0.227-1.285-0.164-2.002,0c-0.719,0.164-0.894-0.447-1.679-0.093c-0.684,0.308-1.515-0.129-2.232-0.375
	c-0.719-0.247-1.532-0.803-2.065-1.255c-0.534-0.451-0.965-1.005-1.293-1.663c-0.329-0.656-0.493-1.395-0.493-2.216V15.669h-4.556
	v-1.847h4.556V2.801h2.094v11.021h7.635v1.847h-7.635v24.875c0.082,1.191,0.533,2.093,1.354,2.709
	c0.82,0.616,1.623,0.991,3.219,1.314c1.599,0.323,0.923,0.233,5.146,0.906 M87.373,44.651"/>
<path fill="#FFFFFF" d="M119.428,45.839h-2.093V27.983c0-8.456-2.812-12.684-8.436-12.684c-1.396,0-2.771,0.268-4.125,0.8
	c-1.354,0.534-2.607,1.273-3.756,2.216c-1.149,0.945-2.155,2.063-3.017,3.356c-0.862,1.293-1.499,2.679-1.909,4.156v20.011h-2.094
	V0.892h2.094v20.935c0.656-1.272,1.467-2.432,2.433-3.479c0.964-1.046,2.011-1.939,3.14-2.678c1.129-0.739,2.34-1.313,3.633-1.724
	c1.293-0.41,2.616-0.616,3.971-0.616c3.489,0,6.055,1.253,7.697,3.756c1.641,2.504,2.462,6.056,2.462,10.652V45.839z"/>
<path fill="#FFFFFF" d="M17.721,78.492c-1.396,0-2.72-0.207-3.971-0.616c-1.252-0.41-2.423-0.964-3.51-1.663
	c-1.088-0.697-2.083-1.518-2.986-2.463c-0.904-0.943-1.684-1.948-2.34-3.017V90.99H2.82V45.859h1.971v6.65
	c0.656-1.025,1.436-1.98,2.339-2.863c0.902-0.883,1.898-1.642,2.986-2.278c1.087-0.636,2.217-1.128,3.387-1.478
	c1.17-0.348,2.371-0.523,3.602-0.523c2.257,0,4.33,0.473,6.219,1.416c1.887,0.945,3.509,2.196,4.864,3.756
	c1.354,1.561,2.411,3.335,3.171,5.326c0.759,1.991,1.139,4.013,1.139,6.064c0,2.217-0.359,4.331-1.077,6.342
	c-0.719,2.012-1.724,3.767-3.017,5.265c-1.293,1.499-2.843,2.699-4.648,3.602C21.948,78.04,19.938,78.492,17.721,78.492z
	 M17.413,76.521c1.97,0,3.756-0.421,5.356-1.263c1.601-0.841,2.956-1.949,4.063-3.324c1.109-1.375,1.971-2.935,2.586-4.68
	c0.616-1.744,0.924-3.52,0.924-5.326c0-1.888-0.349-3.714-1.047-5.479c-0.698-1.765-1.652-3.325-2.863-4.68
	c-1.211-1.354-2.638-2.432-4.279-3.232c-1.643-0.801-3.407-1.201-5.295-1.201c-1.19,0-2.463,0.257-3.817,0.77
	c-1.354,0.514-2.617,1.19-3.787,2.031c-1.17,0.842-2.155,1.816-2.955,2.925c-0.801,1.108-1.262,2.278-1.385,3.51v11.021
	c0.533,1.231,1.231,2.392,2.093,3.479c0.862,1.088,1.836,2.032,2.924,2.832c1.087,0.801,2.268,1.438,3.541,1.909
	C14.744,76.285,16.058,76.521,17.413,76.521z"/>
<path fill="#FFFFFF" d="M53.37,78.492c-2.176,0-4.197-0.442-6.064-1.324c-1.869-0.883-3.5-2.072-4.895-3.571
	c-1.396-1.498-2.484-3.253-3.263-5.265c-0.78-2.011-1.17-4.125-1.17-6.342c0-2.257,0.4-4.392,1.201-6.403
	c0.801-2.011,1.899-3.776,3.294-5.295c1.395-1.519,3.026-2.719,4.895-3.602c1.867-0.882,3.869-1.324,6.003-1.324
	s4.146,0.442,6.034,1.324c1.888,0.883,3.53,2.083,4.926,3.602c1.395,1.519,2.493,3.284,3.294,5.295c0.8,2.012,1.2,4.146,1.2,6.403
	c0,2.217-0.4,4.331-1.2,6.342c-0.801,2.012-1.899,3.767-3.294,5.265c-1.396,1.499-3.039,2.688-4.926,3.571
	C57.515,78.05,55.504,78.492,53.37,78.492z M40.07,62.052c0,1.971,0.349,3.839,1.047,5.604c0.697,1.765,1.642,3.305,2.833,4.617
	c1.189,1.314,2.596,2.351,4.218,3.109c1.621,0.761,3.334,1.14,5.141,1.14c1.806,0,3.52-0.39,5.142-1.17
	c1.621-0.779,3.037-1.826,4.248-3.141c1.21-1.312,2.175-2.862,2.894-4.648c0.718-1.785,1.077-3.663,1.077-5.634
	c0-1.97-0.359-3.849-1.077-5.634c-0.719-1.785-1.684-3.334-2.894-4.648c-1.211-1.313-2.617-2.36-4.218-3.14
	c-1.601-0.78-3.305-1.17-5.11-1.17c-1.807,0-3.509,0.391-5.11,1.17c-1.601,0.779-3.007,1.837-4.218,3.17
	c-1.211,1.335-2.176,2.895-2.894,4.68C40.429,58.142,40.07,60.041,40.07,62.052z"/>
<path fill="#FFFFFF" d="M85.748,78.492c-2.463,0-4.762-0.411-6.896-1.232c-2.135-0.82-4.023-2.093-5.665-3.817l1.17-1.416
	c1.724,1.561,3.488,2.73,5.295,3.51c1.806,0.78,3.817,1.17,6.034,1.17c2.996,0,5.418-0.636,7.266-1.909
	c1.847-1.271,2.771-3.057,2.771-5.356c0-1.066-0.236-1.959-0.708-2.678c-0.473-0.718-1.16-1.334-2.062-1.848
	c-0.903-0.513-2.022-0.964-3.355-1.354c-1.335-0.39-2.863-0.79-4.587-1.201c-1.766-0.409-3.294-0.81-4.587-1.2
	c-1.293-0.39-2.371-0.852-3.233-1.386c-0.861-0.532-1.498-1.21-1.908-2.031c-0.411-0.82-0.616-1.867-0.616-3.141
	c0-1.601,0.309-2.976,0.924-4.125c0.616-1.148,1.447-2.104,2.494-2.863s2.257-1.324,3.633-1.693c1.374-0.37,2.842-0.554,4.401-0.554
	c2.586,0,4.812,0.431,6.681,1.293c1.868,0.862,3.233,1.95,4.095,3.264l-1.416,1.046c-0.903-1.231-2.228-2.175-3.972-2.832
	c-1.745-0.656-3.602-0.985-5.572-0.985c-1.272,0-2.463,0.134-3.571,0.4c-1.107,0.267-2.084,0.698-2.925,1.292
	c-0.842,0.596-1.508,1.346-2,2.248c-0.493,0.903-0.739,1.97-0.739,3.201c0,0.985,0.163,1.807,0.492,2.463
	c0.328,0.657,0.852,1.201,1.57,1.632c0.718,0.431,1.621,0.801,2.709,1.108s2.411,0.646,3.972,1.016
	c1.97,0.452,3.714,0.903,5.233,1.354c1.519,0.452,2.812,0.985,3.879,1.601c1.067,0.616,1.878,1.376,2.433,2.278
	c0.554,0.903,0.831,2.053,0.831,3.448c0,1.438-0.288,2.72-0.862,3.849c-0.575,1.129-1.385,2.104-2.432,2.924
	c-1.047,0.822-2.319,1.447-3.817,1.878C89.206,78.276,87.554,78.492,85.748,78.492z"/>
<path fill="#FFFFFF" d="M117.749,76.398c-0.083,0.041-0.298,0.153-0.646,0.339c-0.349,0.185-0.8,0.39-1.354,0.615
	c-0.554,0.227-1.19,0.421-1.908,0.585c-0.719,0.164-1.509,0.246-2.371,0.246c-0.78,0-1.529-0.123-2.247-0.369
	c-0.719-0.246-1.345-0.595-1.878-1.047c-0.534-0.451-0.965-1.006-1.293-1.662c-0.329-0.656-0.493-1.396-0.493-2.217V47.706h-4.556
	v-1.847h4.556V34.838h2.094v11.021h7.636v1.847h-7.636v24.875c0.082,1.191,0.533,2.093,1.354,2.709s1.765,0.923,2.832,0.923
	c0.656,0,1.283-0.07,1.879-0.215c0.594-0.144,1.128-0.308,1.601-0.492c0.472-0.186,0.841-0.359,1.108-0.524
	c0.267-0.163,0.44-0.266,0.522-0.308L117.749,76.398z"/>
</svg>
