<?xml version="1.0" encoding="utf-8"?>
<!-- Generator: Adobe Illustrator 16.0.0, SVG Export Plug-In . SVG Version: 6.00 Build 0)  -->
<!DOCTYPE svg PUBLIC "-//W3C//DTD SVG 1.1//EN" "http://www.w3.org/Graphics/SVG/1.1/DTD/svg11.dtd">
<svg version="1.1" xmlns="http://www.w3.org/2000/svg" xmlns:xlink="http://www.w3.org/1999/xlink" x="0px" y="0px" width="125px"
	 height="95px" viewBox="0 0 125 95" enable-background="new 0 0 125 95" xml:space="preserve">
<g id="Layer_1">
	<g>
		<g>
			<defs>
				<polygon id="SVGID_1_" points="32.155,45.767 32.155,48.851 124.584,42.583 125.879,48.255 18.126,52.334 16.634,83.276 
					132.743,85.167 128.364,32.932 				"/>
			</defs>
			<clipPath id="SVGID_2_">
				<use xlink:href="#SVGID_1_"  overflow="visible"/>
			</clipPath>
		</g>
		<g>
			<defs>
				<polygon id="SVGID_3_" points="32.155,45.767 32.155,48.851 124.584,42.583 125.879,48.255 18.126,52.334 16.634,83.276 
					132.743,85.167 128.364,32.932 				"/>
			</defs>
			<clipPath id="SVGID_4_">
				<use xlink:href="#SVGID_3_"  overflow="visible"/>
			</clipPath>
			<g clip-path="url(#SVGID_4_)">
				<linearGradient id="SVGID_5_" gradientUnits="userSpaceOnUse" x1="74.6885" y1="85.167" x2="74.6885" y2="32.9326">
					<stop  offset="0" style="stop-color:#E6E7E8"/>
					<stop  offset="1" style="stop-color:#FFFFFF"/>
				</linearGradient>
				<path fill="url(#SVGID_5_)" d="M21.271,80.896V38.922h8.651c1.554,0,2.926,0.082,4.116,0.245
					c1.189,0.164,2.355,0.482,3.498,0.956c1.143,0.475,2.083,1.108,2.822,1.9c0.738,0.793,1.329,1.839,1.772,3.137
					c0.443,1.298,0.665,2.833,0.665,4.605c0,2.192-0.517,3.918-1.55,5.177c-1.034,1.26-2.639,2.255-4.815,2.985
					c4.99,1.212,7.485,4.741,7.485,10.587c0,4.213-1.011,7.33-3.032,9.351s-5.106,3.031-9.257,3.031H21.271z M29.712,55.432h1.446
					c0.777,0,1.43-0.147,1.958-0.443c0.528-0.295,0.929-0.727,1.201-1.294c0.272-0.567,0.462-1.178,0.571-1.831
					c0.108-0.652,0.163-1.422,0.163-2.309c0-0.699-0.05-1.312-0.151-1.842c-0.102-0.528-0.214-0.968-0.338-1.317
					s-0.334-0.645-0.629-0.886c-0.295-0.241-0.556-0.42-0.781-0.536c-0.226-0.117-0.568-0.202-1.026-0.257
					c-0.459-0.054-0.828-0.085-1.108-0.093c-0.28-0.007-0.715-0.012-1.306-0.012V55.432z M29.758,74.902h0.793
					c1.104,0,1.998-0.128,2.682-0.385c0.684-0.256,1.205-0.695,1.562-1.317c0.357-0.621,0.595-1.325,0.711-2.11
					c0.117-0.785,0.175-1.838,0.175-3.159c0-2.192-0.385-3.895-1.154-5.107c-0.77-1.212-2.08-1.818-3.929-1.818h-0.84V74.902z"/>
				<linearGradient id="SVGID_6_" gradientUnits="userSpaceOnUse" x1="74.6885" y1="85.167" x2="74.6885" y2="32.9326">
					<stop  offset="0" style="stop-color:#E6E7E8"/>
					<stop  offset="1" style="stop-color:#FFFFFF"/>
				</linearGradient>
				<path fill="url(#SVGID_6_)" d="M46.84,67.091V52.983c0-9.918,4.088-14.878,12.266-14.878c8.193,0,12.289,4.959,12.289,14.878
					v13.897c0,1.679-0.125,3.229-0.373,4.652c-0.248,1.422-0.672,2.771-1.271,4.046c-0.598,1.274-1.359,2.359-2.285,3.253
					c-0.924,0.894-2.094,1.597-3.508,2.11c-1.416,0.513-3.032,0.77-4.851,0.77c-1.804,0-3.413-0.253-4.827-0.758
					c-1.415-0.505-2.581-1.189-3.498-2.053c-0.917-0.862-1.675-1.919-2.273-3.171c-0.599-1.251-1.026-2.584-1.282-3.999
					C46.968,70.316,46.84,68.77,46.84,67.091z M62.907,69.003V50.861c0-4.135-1.267-6.203-3.801-6.203
					c-0.762,0-1.407,0.19-1.936,0.571c-0.529,0.381-0.917,0.902-1.166,1.562c-0.249,0.661-0.424,1.313-0.525,1.958
					c-0.101,0.646-0.151,1.35-0.151,2.111v18.142c0,4.12,1.259,6.18,3.778,6.18C61.64,75.183,62.907,73.123,62.907,69.003z"/>
				<linearGradient id="SVGID_7_" gradientUnits="userSpaceOnUse" x1="74.6885" y1="85.167" x2="74.6885" y2="32.9326">
					<stop  offset="0" style="stop-color:#E6E7E8"/>
					<stop  offset="1" style="stop-color:#FFFFFF"/>
				</linearGradient>
				<path fill="url(#SVGID_7_)" d="M74.177,80.896V38.922h8.488v17.209h6.086V38.922h8.534v41.974h-8.534V62.171h-6.086v18.725
					H74.177z"/>
				<linearGradient id="SVGID_8_" gradientUnits="userSpaceOnUse" x1="74.6885" y1="85.167" x2="74.6885" y2="32.9326">
					<stop  offset="0" style="stop-color:#E6E7E8"/>
					<stop  offset="1" style="stop-color:#FFFFFF"/>
				</linearGradient>
				<path fill="url(#SVGID_8_)" d="M100.604,80.896V38.898h6.109l9.211,21.966V38.898h7.042v41.997h-5.876L107.903,57.6v23.296
					H100.604z"/>
			</g>
		</g>
		<g>
			<defs>
				<polygon id="SVGID_9_" points="32.155,45.767 32.155,48.851 124.584,42.583 125.879,48.255 18.126,52.334 16.634,83.276 
					132.743,85.167 128.364,32.932 				"/>
			</defs>
			<clipPath id="SVGID_10_">
				<use xlink:href="#SVGID_9_"  overflow="visible"/>
			</clipPath>
		</g>
	</g>
</g>
<g id="Layer_2">
	<g>
		<defs>
			<polygon id="SVGID_11_" points="0.019,45.867 -0.479,48.651 30.364,45.965 30.463,49.049 -2.468,51.339 0.019,56.212 
				94.837,54.421 137.12,56.212 136.323,103.273 -12.12,103.273 -12.12,2.587 133.34,1.394 95.434,34.325 			"/>
		</defs>
		<clipPath id="SVGID_12_">
			<use xlink:href="#SVGID_11_"  overflow="visible"/>
		</clipPath>
		<g clip-path="url(#SVGID_12_)">
			<g>
				<linearGradient id="SVGID_13_" gradientUnits="userSpaceOnUse" x1="45.8511" y1="52.1855" x2="45.8511" y2="10.2124">
					<stop  offset="0" style="stop-color:#BCBEC0"/>
					<stop  offset="1" style="stop-color:#A7A9AC"/>
				</linearGradient>
				<path fill="url(#SVGID_13_)" d="M1.172,52.186V10.212h17.512v5.83H9.66v11.426h6.39v5.97H9.66v18.748H1.172z"/>
				<linearGradient id="SVGID_14_" gradientUnits="userSpaceOnUse" x1="45.8511" y1="52.1855" x2="45.8511" y2="10.2124">
					<stop  offset="0" style="stop-color:#BCBEC0"/>
					<stop  offset="1" style="stop-color:#A7A9AC"/>
				</linearGradient>
				<path fill="url(#SVGID_14_)" d="M21.133,52.186V10.212h9.234c2.099,0,3.944,0.198,5.538,0.595
					c1.593,0.396,2.988,1.018,4.186,1.865c1.197,0.848,2.106,1.99,2.729,3.428c0.622,1.438,0.933,3.16,0.933,5.166
					c0,0.871-0.031,1.648-0.093,2.332c-0.062,0.685-0.206,1.465-0.431,2.344c-0.226,0.878-0.533,1.655-0.921,2.332
					s-0.948,1.341-1.679,1.994c-0.731,0.653-1.594,1.197-2.588,1.632c2.518,7.991,4.71,14.753,6.576,20.287h-8.791L31.02,32.854
					h-1.399v19.331H21.133z M29.621,27.678h2.425c0.653,0,1.212-0.218,1.679-0.653c0.466-0.435,0.804-0.987,1.014-1.655
					s0.357-1.283,0.443-1.842s0.128-1.088,0.128-1.586c0-0.497-0.035-1.01-0.105-1.539s-0.194-1.116-0.373-1.761
					s-0.474-1.174-0.886-1.586c-0.412-0.412-0.913-0.618-1.504-0.618h-2.822V27.678z"/>
				<linearGradient id="SVGID_15_" gradientUnits="userSpaceOnUse" x1="45.8511" y1="52.1855" x2="45.8511" y2="10.2124">
					<stop  offset="0" style="stop-color:#BCBEC0"/>
					<stop  offset="1" style="stop-color:#A7A9AC"/>
				</linearGradient>
				<path fill="url(#SVGID_15_)" d="M47.296,52.186V10.212h17.512v5.83h-9.024v11.426h6.39v5.97h-6.39v12.918h9.024v5.83H47.296z"/>
				<linearGradient id="SVGID_16_" gradientUnits="userSpaceOnUse" x1="45.8511" y1="52.1855" x2="45.8511" y2="10.2124">
					<stop  offset="0" style="stop-color:#BCBEC0"/>
					<stop  offset="1" style="stop-color:#A7A9AC"/>
				</linearGradient>
				<path fill="url(#SVGID_16_)" d="M67.84,52.186V10.212h8.768c2.799,0,5.104,0.253,6.914,0.758
					c1.812,0.505,3.233,1.337,4.268,2.495c1.033,1.158,1.749,2.546,2.146,4.162c0.396,1.617,0.595,3.677,0.595,6.18v13.758
					c0,1.492-0.047,2.794-0.141,3.906c-0.093,1.111-0.268,2.2-0.524,3.265s-0.606,1.967-1.049,2.705
					c-0.443,0.739-1.015,1.426-1.714,2.064c-0.7,0.638-1.544,1.143-2.53,1.516c-0.987,0.373-2.146,0.661-3.475,0.863
					s-2.856,0.303-4.582,0.303H67.84z M76.654,46.239c0.809,0,1.445-0.012,1.912-0.035c0.467-0.023,0.933-0.082,1.399-0.175
					c0.466-0.093,0.808-0.221,1.025-0.385c0.218-0.163,0.42-0.4,0.606-0.711s0.307-0.68,0.361-1.108
					c0.055-0.427,0.082-0.959,0.082-1.597V19.633c0-1.384-0.412-2.301-1.236-2.752c-0.824-0.451-2.207-0.684-4.15-0.699V46.239z"/>
			</g>
		</g>
	</g>
</g>
</svg>
